<svg xmlns="http://www.w3.org/2000/svg" viewBox="0 0 2000 1000" role="img" aria-label="World map">
  <rect width="2000" height="1000" fill="#eef3f7"/>
  <g fill="#d5dde7" stroke="#ffffff" stroke-width="2">
    <!-- North America -->
    <path d="M180,235 L255,180 L360,165 L470,175 L565,210 L620,255 L610,315 L560,340 L530,375 L510,430 L450,470 L375,455 L325,430 L260,390 L225,330 L185,285 Z"/>
    <!-- South America -->
    <path d="M515,500 L565,530 L595,585 L615,650 L600,730 L560,800 L525,835 L505,805 L515,750 L495,690 L470,620 L475,560 Z"/>
    <!-- Europe -->
    <path d="M935,200 L980,185 L1035,190 L1085,205 L1115,235 L1090,270 L1045,285 L995,280 L955,260 L930,235 Z"/>
    <!-- Africa -->
    <path d="M1000,315 L1050,340 L1095,390 L1110,470 L1090,565 L1055,650 L1005,715 L965,675 L950,600 L955,510 L970,430 Z"/>
    <!-- Middle East -->
    <path d="M1115,300 L1160,305 L1200,325 L1215,360 L1190,390 L1140,390 L1105,360 Z"/>
    <!-- Asia -->
    <path d="M1140,220 L1235,190 L1360,185 L1490,210 L1590,255 L1660,320 L1650,395 L1585,430 L1500,410 L1435,370 L1360,355 L1270,340 L1180,310 L1130,265 Z"/>
    <!-- Southeast Asia -->
    <path d="M1345,430 L1390,455 L1420,500 L1400,555 L1365,580 L1335,550 L1325,500 Z"/>
    <!-- Japan -->
    <path d="M1605,310 L1620,330 L1615,360 L1595,385 L1585,355 L1590,325 Z"/>
    <!-- Australia -->
    <path d="M1560,690 L1630,675 L1710,700 L1760,750 L1745,810 L1675,840 L1595,820 L1545,770 Z"/>
    <!-- Greenland -->
    <path d="M650,80 L725,55 L805,70 L830,120 L790,155 L705,150 L650,120 Z"/>
  </g>
</svg>
